<svg xmlns="http://www.w3.org/2000/svg" version="1.1" xmlns:xlink="http://www.w3.org/1999/xlink" width="1500"
    height="1500" viewBox="0 0 1500 1500">
    <rect width="1500" height="1500" x="0" y="0" id="background" stroke="transparent" fill="#000000"></rect><svg
        xml:space="preserve" width="1000" height="1000" data-version="2" data-id="lg_R4NFU6mmJvtxMkeVTk"
        viewBox="0 0 558 354" x="250" y="250">
        <rect width="100%" height="100%" fill="transparent"></rect>
        <path fill="#fff"
            d="M101.525 239.242q9.9 0 16.28 4.01 6.37 4.02 6.52 11.89v.9h-15.52v-.3q0-2.25-1.65-3.75t-5.03-1.5q-3.3 0-5.06.98-1.76.97-1.76 2.4 0 2.02 2.4 3 2.4.97 7.72 2.02 6.23 1.28 10.24 2.66 4.01 1.39 7.01 4.54 3 3.15 3.08 8.55 0 9.15-6.19 13.58-6.19 4.42-16.54 4.42-12.07 0-18.78-4.05-6.72-4.05-6.72-14.32h15.68q0 3.9 2.02 5.21 2.03 1.31 6.3 1.31 3.15 0 5.22-.67 2.06-.68 2.06-2.78 0-1.87-2.29-2.81t-7.46-1.99q-6.3-1.35-10.43-2.81-4.12-1.46-7.2-4.84-3.07-3.37-3.07-9.15 0-8.47 6.56-12.49 6.56-4.01 16.61-4.01m49.43 12.9h8.4v10.13h-8.4v15.07q0 2.7.9 3.94.9 1.24 3.3 1.24h4.2v8.77q-1.8.6-4.65.98-2.85.37-4.95.37-6.6 0-10.16-2.4-3.57-2.4-3.57-8.17v-19.8h-5.55v-10.13h6.15l3.23-12h11.1zm34.87-.9q9.08 0 14.78 3.04 5.7 3.04 5.7 9.86v15.45q0 1.28.6 2.1.6.83 1.8.83h2.7v8.62q-.23.15-1.16.49-.94.34-2.67.67-1.72.34-3.97.34-4.35 0-7.16-1.31-2.82-1.31-3.87-3.64-2.85 2.25-6.37 3.6-3.53 1.35-8.25 1.35-13.95 0-13.95-11.1 0-5.77 3.11-8.81 3.11-3.04 8.96-4.16 5.85-1.13 15.3-1.13v-1.95q0-2.32-1.61-3.52-1.61-1.2-4.16-1.2-2.33 0-4.01.82-1.69.83-1.69 2.63v.3h-14.7q-.08-.38-.08-1.05 0-5.63 5.37-8.93 5.36-3.3 15.33-3.3m5.55 23.25q-6.37 0-9.41 1.39t-3.04 3.71q0 3.75 5.1 3.75 2.93 0 5.14-1.57 2.21-1.58 2.21-3.9zm42.9-22.35h8.4v10.13h-8.4v15.07q0 2.7.9 3.94.9 1.24 3.3 1.24h4.2v8.77q-1.8.6-4.65.98-2.85.37-4.95.37-6.6 0-10.16-2.4-3.56-2.4-3.56-8.17v-19.8h-5.55v-10.13h6.15l3.22-12h11.1zm30.3 3.68q4.28-4.58 11.1-4.58 8.03 0 12.38 5.21 4.35 5.22 4.35 15.42 0 10.27-4.35 15.52t-12.38 5.25q-8.25 0-12.6-6.52l-1.27 5.62h-12.15v-54.37h14.92zm6.45 6.45q-3.3 0-4.95 2.36-1.65 2.36-1.65 6.11v2.48q0 3.75 1.65 6.07 1.65 2.33 4.95 2.33 6.45 0 6.45-7.65v-3.98q0-7.72-6.45-7.72m49.05-11.03q10.43 0 16.39 5.29 5.96 5.29 5.96 15.41 0 10.13-5.96 15.41-5.96 5.29-16.39 5.29-10.42 0-16.35-5.25-5.92-5.25-5.92-15.45t5.92-15.45q5.93-5.25 16.35-5.25m0 10.13q-7.35 0-7.35 8.47v4.28q0 8.4 7.35 8.4 7.43 0 7.43-8.4v-4.28q0-8.47-7.43-8.47m49.13-10.13q9.07 0 14.77 3.04 5.7 3.04 5.7 9.86v15.45q0 1.28.6 2.1.6.83 1.8.83h2.7v8.62q-.22.15-1.16.49-.94.34-2.66.67-1.73.34-3.98.34-4.35 0-7.16-1.31-2.81-1.31-3.86-3.64-2.85 2.25-6.38 3.6-3.52 1.35-8.25 1.35-13.95 0-13.95-11.1 0-5.77 3.12-8.81 3.11-3.04 8.96-4.16 5.85-1.13 15.3-1.13v-1.95q0-2.32-1.61-3.52-1.62-1.2-4.17-1.2-2.32 0-4.01.82-1.69.83-1.69 2.63v.3h-14.7q-.07-.38-.07-1.05 0-5.63 5.36-8.93t15.34-3.3m5.55 23.25q-6.38 0-9.41 1.39-3.04 1.39-3.04 3.71 0 3.75 5.1 3.75 2.92 0 5.14-1.57 2.21-1.58 2.21-3.9zm48.97-23.32q1.73 0 3.08.41t1.35.49v12.52h-4.8q-4.65 0-6.71 2.4-2.07 2.4-2.07 7.13v17.62h-14.92v-39.6h12.22l.98 6q1.35-3.45 4.27-5.21 2.93-1.76 6.6-1.76m50.18 40.57h-12.15l-1.28-5.62q-4.35 6.52-12.6 6.52-8.02 0-12.37-5.25t-4.35-15.52q0-10.2 4.35-15.42 4.35-5.21 12.37-5.21 6.83 0 11.1 4.58v-18.45h14.93zm-21.38-29.47q-6.45 0-6.45 7.72v3.98q0 7.65 6.45 7.65 3.3 0 4.95-2.33 1.65-2.32 1.65-6.07v-2.48q0-3.75-1.65-6.11-1.65-2.36-4.95-2.36">
        </path>
        <path fill="#fff"
            d="M6.435 346.442v1.12h4.94v-1.12zm0-8.68v1.12h4.94v-1.12zm0 3.92v1.12h4.66v-1.12zm.53-3.92h-1.19v9.8h1.19zm21.09 0-3.22 7.59-3.22-7.59h-1.33l4.55 10.29 4.55-10.29zm11.03 8.68v1.12h4.94v-1.12zm0-8.68v1.12h4.94v-1.12zm0 3.92v1.12h4.66v-1.12zm.53-3.92h-1.19v9.8h1.19zm17.45 4.97h-1.33l3.36 4.83h1.47zm-1.89-4.97h-1.19v9.8h1.19zm-.54 0v1.05h2.01q.63 0 1.11.23.48.22.75.64.28.42.28 1.02 0 .6-.28 1.02-.27.42-.75.65-.48.22-1.11.22h-2.01v1.05h2.01q.95 0 1.7-.35.75-.36 1.19-1.03.44-.66.44-1.56 0-.91-.44-1.57-.44-.65-1.19-1.01t-1.7-.36zm21.7 0h-1.33l-2.53 4.54-2.52-4.54h-1.33l3.26 5.59v4.21h1.19v-4.23zm21.47 6.83-.96.65q.33.64.84 1.21t1.19.91q.68.34 1.47.34.59 0 1.13-.19.54-.2.97-.56.42-.37.67-.89.24-.51.24-1.16 0-.67-.23-1.15-.24-.49-.61-.83-.37-.34-.81-.57-.43-.22-.82-.36-.86-.29-1.36-.59-.49-.31-.7-.65-.21-.34-.21-.75 0-.47.36-.86.37-.38 1.16-.38.58 0 .98.22t.68.57q.28.35.46.72l1.02-.59q-.24-.52-.66-.99-.42-.47-1.01-.77-.6-.3-1.4-.3-.82 0-1.47.33-.64.33-1 .9-.37.58-.37 1.31 0 .67.26 1.13.26.46.67.78.4.31.85.52.45.2.81.32.56.2 1.06.45.5.24.8.63.31.39.31 1.05 0 .67-.47 1.11-.48.43-1.26.43-.59 0-1.05-.25-.47-.25-.84-.7-.37-.45-.7-1.04m14.18-6.83v1.12h2.52v8.68h1.19v-8.68h2.52v-1.12zm16.7 5.74-.42 1.12h5.18l-.42-1.12zm.49.37 1.65-3.9 1.68 3.95.11.28 1.43 3.36h1.33l-4.55-10.29-4.55 10.29h1.33l1.46-3.44zm14.27-6.11v1.12h2.52v8.68h1.19v-8.68h2.52v-1.12zm17.41 8.68-1.12-.42-1.23 3.63.81.29zm22.81 0v1.12h4.94v-1.12zm0-8.68v1.12h4.94v-1.12zm0 3.92v1.12h4.66v-1.12zm.53-3.92h-1.19v9.8h1.19zm21.08 0-3.22 7.59-3.22-7.59h-1.33l4.55 10.29 4.55-10.29zm11.04 8.68v1.12h4.94v-1.12zm0-8.68v1.12h4.94v-1.12zm0 3.92v1.12h4.66v-1.12zm.53-3.92h-1.19v9.8h1.19zm17.44 4.97h-1.33l3.36 4.83h1.47zm-1.89-4.97h-1.19v9.8h1.19zm-.53 0v1.05h2q.63 0 1.11.23.49.22.76.64.27.42.27 1.02 0 .6-.27 1.02-.27.42-.76.65-.48.22-1.11.22h-2v1.05h2q.95 0 1.7-.35.75-.36 1.19-1.03.44-.66.44-1.56 0-.91-.44-1.57-.44-.65-1.19-1.01t-1.7-.36zm21.7 0h-1.33l-2.53 4.54-2.52-4.54h-1.33l3.26 5.59v4.21h1.19v-4.23zm20.12 0v1.12h2.52v8.68h1.19v-8.68h2.52v-1.12zm16 8.68v1.12h4.94v-1.12zm0-8.68v1.12h4.94v-1.12zm0 3.92v1.12h4.66v-1.12zm.53-3.92h-1.19v9.8h1.19zm15.72 5.74-.42 1.12h5.18l-.42-1.12zm.49.37 1.66-3.9 1.68 3.95.11.28 1.43 3.36h1.33l-4.55-10.29-4.55 10.29h1.33l1.45-3.44zm15.88 3.69.73-6.62 3.19 5.71 3.19-5.71.73 6.62h1.19l-1.19-10.29-3.92 7.1-3.92-7.1-1.19 10.29zm20.64-1.12-1.12-.42-1.24 3.63.82.29zm22.8 0v1.12h4.94v-1.12zm0-8.68v1.12h4.94v-1.12zm0 3.92v1.12h4.66v-1.12zm.53-3.92h-1.19v9.8h1.19zm21.09 0-3.22 7.59-3.22-7.59h-1.33l4.55 10.29 4.55-10.29zm11.03 8.68v1.12h4.94v-1.12zm0-8.68v1.12h4.94v-1.12zm0 3.92v1.12h4.66v-1.12zm.53-3.92h-1.19v9.8h1.19zm17.45 4.97h-1.33l3.36 4.83h1.47zm-1.89-4.97h-1.19v9.8h1.19zm-.54 0v1.05h2.01q.63 0 1.11.23.48.22.75.64.28.42.28 1.02 0 .6-.28 1.02-.27.42-.75.65-.48.22-1.11.22h-2.01v1.05h2.01q.95 0 1.7-.35.75-.36 1.19-1.03.44-.66.44-1.56 0-.91-.44-1.57-.44-.65-1.19-1.01t-1.7-.36zm21.7 0h-1.33l-2.53 4.54-2.52-4.54h-1.33l3.26 5.59v4.21h1.19v-4.23zm22.29 0h-1.19v9.8h1.19zm-.53 0v1.12h2q.95 0 1.55.46.59.45.59 1.36 0 .9-.59 1.36-.6.46-1.55.46h-2v1.12h2q.95 0 1.7-.35.75-.36 1.19-1.03.44-.66.44-1.56 0-.91-.44-1.57-.44-.65-1.19-1.01t-1.7-.36zm16.06 0h-1.19v9.8h5.04v-1.12h-3.85zm14.32 5.74-.42 1.12h5.18l-.42-1.12zm.49.37 1.65-3.9 1.68 3.95.11.28 1.43 3.36h1.33l-4.55-10.29-4.55 10.29h1.33l1.46-3.44zm21.91-6.11h-1.33l-2.53 4.54-2.52-4.54h-1.33l3.26 5.59v4.21h1.19v-4.23zm9.7 8.68v1.12h4.94v-1.12zm0-8.68v1.12h4.94v-1.12zm0 3.92v1.12h4.66v-1.12zm.53-3.92h-1.19v9.8h1.19zm17.45 4.97h-1.33l3.36 4.83h1.47zm-1.89-4.97h-1.19v9.8h1.19zm-.53 0v1.05h2q.63 0 1.11.23.48.22.76.64.27.42.27 1.02 0 .6-.27 1.02-.28.42-.76.65-.48.22-1.11.22h-2v1.05h2q.95 0 1.7-.35.75-.36 1.19-1.03.44-.66.44-1.56 0-.91-.44-1.57-.44-.65-1.19-1.01t-1.7-.36zm15.24 9.24q0 .31.23.54.23.23.54.23.32 0 .55-.23.22-.23.22-.54 0-.32-.22-.54-.23-.23-.55-.23-.31 0-.54.23-.23.22-.23.54">
        </path>
        <path fill="#f47920"
            d="M245.34 172.052a125.697 125.697 0 0 0 6.033 21.697 96.69 96.69 0 0 0 56.718-2.262 232.056 232.056 0 0 1-33.841-10.694c-9.63-3.674-18.217-6.923-28.91-8.741m-34.75-.696a96.69 96.69 0 0 0 35.465 20.808 135.366 135.366 0 0 1-5.395-20.789c-8.258-.986-17.888-1.16-30.07 0m29.335-4.486q-1.006-6.71-1.508-13.634c-24.54-4.834-43.975-13.69-54.92-25.1a96.69 96.69 0 0 0 23.012 39.198c13.575-1.47 24.308-1.47 33.416-.464m-9.495-41.693a34.808 34.808 0 0 0 7.658 2.881c2.32-53.372 22.161-107.326 38.27-124.517h-.271a96.69 96.69 0 0 0-72.556 32.817c-9.012 25.1-.851 74.354 26.88 88.819">
        </path>
        <path fill="#f47920"
            d="M238.127 148.653q-.387-8.006-.194-16.109a38.676 38.676 0 0 1-9.553-3.442c-26.725-13.923-36.51-55.887-31.579-84.12a96.303 96.303 0 0 0-15.896 72.15c7.233 14.155 28.66 25.662 57.24 31.521m4.507-19.783c20.827 2.224 55.944-12.337 106.745-91.623a96.69 96.69 0 0 0-66.812-33.474c-15.587 11.003-37.555 68.804-39.953 125.097m24.985 28.002q-12.898-.774-24.598-2.766.522 6.788 1.547 13.382c11.95 1.837 21.233 5.357 31.25 9.186 10.559 4.022 22.51 8.547 39.682 11.854a96.69 96.69 0 0 0 52.212-57.376c-22.374 21.717-66.097 27.692-100.112 25.72">
        </path>
        <path fill="#f47920"
            d="M242.517 133.26q-.193 8.2.213 16.263 11.931 2.166 25.14 2.94c36.529 2.107 84.468-4.95 102.626-31.367a96.303 96.303 0 0 0-18.178-80.272c-51.13 79.383-87.6 94.563-109.8 92.436">
        </path>
    </svg>
</svg>